<svg width="20" height="20" viewBox="0 0 20 20" fill="none" xmlns="http://www.w3.org/2000/svg">
<rect width="20" height="20" rx="10" fill="#161A67"/>
<path d="M17.8785 10.3179C17.247 10.3179 16.6837 10.0809 16.2027 9.6142C15.8305 9.25219 15.5559 8.80781 15.2905 8.37869C14.595 7.253 14.3337 7.12894 13.9401 7.12894C13.5466 7.12894 13.2853 7.25199 12.5897 8.37869C12.3243 8.80781 12.0497 9.25219 11.6776 9.6142C11.1966 10.0809 10.6332 10.3179 10.0018 10.3179C9.37027 10.3179 8.80692 10.0809 8.32593 9.6142C7.95376 9.25219 7.6792 8.80781 7.41379 8.37869C6.71825 7.253 6.45691 7.12894 6.06338 7.12894C5.66984 7.12894 5.40851 7.25199 4.71296 8.37869C4.44755 8.80781 4.173 9.25219 3.80082 9.6142C3.31983 10.0809 2.75648 10.3179 2.125 10.3179V8.86374C2.51853 8.86374 2.77987 8.7407 3.47542 7.61399C3.74082 7.18487 4.01538 6.74049 4.38756 6.37849C4.86854 5.91174 5.43189 5.6748 6.06338 5.6748C6.69486 5.6748 7.25821 5.91174 7.73919 6.37849C8.11137 6.74049 8.38593 7.18487 8.65134 7.61399C9.34688 8.73968 9.60822 8.86374 10.0018 8.86374C10.3953 8.86374 10.6566 8.7407 11.3522 7.61399C11.6176 7.18487 11.8921 6.74049 12.2643 6.37849C12.7453 5.91174 13.3086 5.6748 13.9401 5.6748C14.5716 5.6748 15.135 5.91174 15.6159 6.37849C15.9881 6.74049 16.2627 7.18487 16.5281 7.61399C17.2236 8.73968 17.485 8.86374 17.8785 8.86374V10.3179Z" fill="#03E1D0"/>
<path d="M17.8785 14.3496C17.247 14.3496 16.6837 14.1127 16.2027 13.6459C15.8305 13.2839 15.5559 12.8395 15.2905 12.4104C14.595 11.2847 14.3337 11.1607 13.9401 11.1607C13.5466 11.1607 13.2853 11.2837 12.5897 12.4104C12.3243 12.8395 12.0497 13.2839 11.6776 13.6459C11.1966 14.1127 10.6332 14.3496 10.0018 14.3496C9.37027 14.3496 8.80692 14.1127 8.32593 13.6459C7.95376 13.2839 7.6792 12.8395 7.41379 12.4104C6.71825 11.2847 6.45691 11.1607 6.06338 11.1607C5.66984 11.1607 5.40851 11.2837 4.71296 12.4104C4.44755 12.8395 4.173 13.2839 3.80082 13.6459C3.31983 14.1127 2.75648 14.3496 2.125 14.3496V12.8955C2.51853 12.8955 2.77987 12.7724 3.47542 11.6457C3.74082 11.2166 4.01538 10.7722 4.38756 10.4102C4.86854 9.94348 5.43189 9.70654 6.06338 9.70654C6.69486 9.70654 7.25821 9.94348 7.73919 10.4102C8.11137 10.7722 8.38593 11.2166 8.65134 11.6457C9.34688 12.7714 9.60822 12.8955 10.0018 12.8955C10.3953 12.8955 10.6566 12.7724 11.3522 11.6457C11.6176 11.2166 11.8921 10.7722 12.2643 10.4102C12.7453 9.94348 13.3086 9.70654 13.9401 9.70654C14.5716 9.70654 15.135 9.94348 15.6159 10.4102C15.9881 10.7722 16.2627 11.2166 16.5281 11.6457C17.2236 12.7714 17.485 12.8955 17.8785 12.8955V14.3496V14.3496Z" fill="#03E1D0"/>
</svg>
