<svg width="127" height="26" viewBox="0 0 127 26" fill="none" xmlns="http://www.w3.org/2000/svg">
<path d="M42.5832 14.5824C40.8762 14.5824 39.3534 13.9419 38.0533 12.6803C37.0472 11.7017 36.3051 10.5005 35.5877 9.34058C33.7075 6.29775 33.0011 5.96241 31.9374 5.96241C30.8736 5.96241 30.1672 6.295 28.2871 9.34058C27.5697 10.5005 26.8275 11.7017 25.8215 12.6803C24.5213 13.9419 22.9985 14.5824 21.2916 14.5824C19.5846 14.5824 18.0618 13.9419 16.7617 12.6803C15.7557 11.7017 15.0135 10.5005 14.2961 9.34058C12.416 6.29775 11.7095 5.96241 10.6458 5.96241C9.58203 5.96241 8.87561 6.295 6.99549 9.34058C6.27807 10.5005 5.53592 11.7017 4.52989 12.6803C3.22974 13.9419 1.70695 14.5824 0 14.5824V10.6517C1.06375 10.6517 1.77018 10.3191 3.6503 7.27354C4.36771 6.11359 5.10987 4.9124 6.1159 3.93385C7.41604 2.67219 8.93883 2.03174 10.6458 2.03174C12.3527 2.03174 13.8755 2.67219 15.1757 3.93385C16.1817 4.9124 16.9239 6.11359 17.6413 7.27354C19.5214 10.3164 20.2278 10.6517 21.2916 10.6517C22.3553 10.6517 23.0618 10.3191 24.9419 7.27354C25.6593 6.11359 26.4014 4.9124 27.4075 3.93385C28.7076 2.67219 30.2304 2.03174 31.9374 2.03174C33.6443 2.03174 35.1671 2.67219 36.4673 3.93385C37.4733 4.9124 38.2154 6.11359 38.9329 7.27354C40.813 10.3164 41.5194 10.6517 42.5832 10.6517V14.5824Z" fill="#03E1D0"/>
<path d="M42.5832 25.4808C40.8762 25.4808 39.3534 24.8404 38.0533 23.5787C37.0472 22.6002 36.3051 21.399 35.5877 20.239C33.7075 17.1962 33.0011 16.8608 31.9374 16.8608C30.8736 16.8608 30.1672 17.1934 28.2871 20.239C27.5697 21.399 26.8275 22.6002 25.8215 23.5787C24.5213 24.8404 22.9985 25.4808 21.2916 25.4808C19.5846 25.4808 18.0618 24.8404 16.7617 23.5787C15.7557 22.6002 15.0135 21.399 14.2961 20.239C12.416 17.1962 11.7095 16.8608 10.6458 16.8608C9.58203 16.8608 8.87561 17.1934 6.99549 20.239C6.27807 21.399 5.53592 22.6002 4.52989 23.5787C3.22974 24.8404 1.70695 25.4808 0 25.4808V21.5502C1.06375 21.5502 1.77018 21.2176 3.6503 18.172C4.36771 17.012 5.10987 15.8108 6.1159 14.8323C7.41604 13.5706 8.93883 12.9302 10.6458 12.9302C12.3527 12.9302 13.8755 13.5706 15.1757 14.8323C16.1817 15.8108 16.9239 17.012 17.6413 18.172C19.5214 21.2148 20.2278 21.5502 21.2916 21.5502C22.3553 21.5502 23.0618 21.2176 24.9419 18.172C25.6593 17.012 26.4014 15.8108 27.4075 14.8323C28.7076 13.5706 30.2304 12.9302 31.9374 12.9302C33.6443 12.9302 35.1671 13.5706 36.4673 14.8323C37.4733 15.8108 38.2154 17.012 38.9329 18.172C40.813 21.2148 41.5194 21.5502 42.5832 21.5502V25.4808V25.4808Z" fill="#03E1D0"/>
<path d="M61.5564 0L71.3501 25.4641H66.5728L64.1292 18.6913H54.0552L51.5731 25.4641H46.9277L56.7791 0H61.5564ZM62.9555 15.2966L59.0936 4.70031L55.2124 15.2966H62.9555V15.2966Z" fill="#FAFCFC"/>
<path d="M72.2194 12.7235C72.3816 10.9451 72.9643 9.55976 73.9731 8.56197C75.3667 7.18212 77.475 6.49219 80.2979 6.49219C81.8894 6.49219 83.283 6.70109 84.476 7.11615C85.6689 7.53395 86.554 8.11943 87.1257 8.87807C87.6975 9.63672 87.9833 10.7939 87.9833 12.347C87.9833 12.707 87.9586 13.8285 87.9091 15.7059L87.8706 17.9818C87.8322 19.2517 87.8157 19.9664 87.8157 20.1286C87.8157 21.349 87.8679 22.0939 87.9751 22.366C88.0795 22.6409 88.3764 22.7756 88.8602 22.7756C89.0718 22.7756 89.3714 22.7564 89.7563 22.7206V25.5738C88.687 25.8459 87.8102 25.9834 87.1257 25.9834C85.3721 25.9834 84.3715 25.2439 84.1214 23.7624C82.4419 25.2549 80.2649 25.9998 77.5904 25.9998C75.911 25.9998 74.5311 25.6013 73.4481 24.8069C72.093 23.8119 71.4141 22.3743 71.4141 20.4969C71.4141 18.7185 72.0353 17.3634 73.2804 16.4288C73.9649 15.9203 74.6548 15.5685 75.3502 15.376C76.0456 15.1836 77.4887 14.95 79.6795 14.6779C81.6585 14.4305 82.8652 14.1831 83.3078 13.9412C83.7503 13.6993 83.9702 13.1496 83.9702 12.2892C83.9702 10.4229 82.6948 9.49104 80.1467 9.49104C78.8274 9.49104 77.8626 9.73567 77.2468 10.2277C76.6311 10.7197 76.2353 11.5498 76.0621 12.718H72.2194V12.7235ZM83.918 16.2501C83.4067 16.5113 82.9339 16.6954 82.4996 16.7999C82.0653 16.9071 81.1005 17.0583 79.608 17.2562C77.9285 17.4788 76.829 17.8526 76.3068 18.3749C75.8093 18.8724 75.5619 19.5184 75.5619 20.3155C75.5619 21.1868 75.856 21.863 76.447 22.3495C77.0379 22.8333 77.8681 23.078 78.9373 23.078C79.9186 23.078 80.8339 22.8965 81.6805 22.5365C82.5271 22.1764 83.1291 21.7091 83.4892 21.1374C83.775 20.6783 83.918 19.7685 83.918 18.4134V16.2501V16.2501Z" fill="#FAFCFC"/>
<path d="M95.3466 0V25.4669H91.2812V0H95.3466Z" fill="#FAFCFC"/>
<path d="M107.065 6.99532V9.98043H103.335V19.6999C103.335 20.8818 103.462 21.6295 103.717 21.9484C103.973 22.2645 104.572 22.4239 105.518 22.4239C105.977 22.4239 106.494 22.3799 107.065 22.2919V25.4997C106.07 25.6124 105.144 25.6674 104.286 25.6674C103.104 25.6674 102.17 25.5354 101.48 25.2743C100.79 25.0132 100.257 24.5899 99.8857 24.0044C99.6246 23.5701 99.4569 23.0396 99.3827 22.4184C99.3085 21.7972 99.27 20.5767 99.27 18.7626V9.97493H96.1914V6.98982H99.27V1.47314H103.338V6.99532H107.068H107.065Z" fill="#FAFCFC"/>
<path d="M116.851 6.49219C119.61 6.49219 121.845 7.39377 123.549 9.19693C125.19 10.9259 126.012 13.2705 126.012 16.2309C126.012 19.3782 125.086 21.8328 123.233 23.6002C121.578 25.1807 119.41 25.9696 116.721 25.9696C113.747 25.9696 111.43 25.0378 109.762 23.1714C108.17 21.3792 107.373 19.0731 107.373 16.2501C107.373 13.4272 108.118 11.2447 109.611 9.51578C111.35 7.50097 113.764 6.49219 116.848 6.49219H116.851ZM116.776 9.75766C115.122 9.75766 113.83 10.3321 112.895 11.4839C111.963 12.6356 111.496 14.2243 111.496 16.2501C111.496 18.2759 111.988 19.9802 112.969 21.1016C113.915 22.1709 115.177 22.7069 116.757 22.7069C118.2 22.7069 119.363 22.2341 120.245 21.2885C121.339 20.1313 121.886 18.4354 121.886 16.1952C121.886 14.1309 121.408 12.5394 120.449 11.4179C119.553 10.3486 118.327 9.79615 116.774 9.75766H116.776Z" fill="#FAFCFC"/>
</svg>
