<svg width="22" height="22" viewBox="0 0 22 22" fill="none" xmlns="http://www.w3.org/2000/svg">
<path fill-rule="evenodd" clip-rule="evenodd" d="M17.5697 0.61084H4.73633C4.48287 0.61084 4.27799 0.815715 4.27799 1.06917V4.27751C4.27799 4.53096 4.48287 4.73584 4.73633 4.73584H17.5697C17.8231 4.73584 18.028 4.53096 18.028 4.27751V1.06917C18.028 0.815715 17.8231 0.61084 17.5697 0.61084ZM21.2363 12.0692H17.1113C16.1002 12.0692 15.278 12.8914 15.278 13.9025C15.278 14.9136 16.1002 15.7358 17.1113 15.7358H21.2363C21.4893 15.7358 21.6947 15.5305 21.6947 15.2775V12.5275C21.6947 12.2745 21.4893 12.0692 21.2363 12.0692ZM2.90299 6.11084H19.8613C20.1143 6.11084 20.3197 6.31617 20.3197 6.56917V11.1525H17.1113C15.5947 11.1525 14.3613 12.3859 14.3613 13.9025C14.3613 15.4191 15.5947 16.6525 17.1113 16.6525H20.3197V21.2358C20.3197 21.4888 20.1143 21.6942 19.8613 21.6942H3.81966C2.05049 21.6942 0.611328 20.255 0.611328 18.4858V4.73584C0.611328 3.47221 1.63937 2.44417 2.90299 2.44417H3.36133V3.36084H2.90299C2.14491 3.36084 1.52799 3.97776 1.52799 4.73584C1.52799 5.49392 2.14491 6.11084 2.90299 6.11084Z" fill="#F0F7F7"/>
</svg>
